<?xml version="1.0" encoding="utf-8"?>
<!-- Generator: Adobe Illustrator 27.5.0, SVG Export Plug-In . SVG Version: 6.00 Build 0)  -->
<svg version="1.1" id="Artwork" xmlns="http://www.w3.org/2000/svg" xmlns:xlink="http://www.w3.org/1999/xlink" x="0px" y="0px"
	 viewBox="0 0 24 24" style="enable-background:new 0 0 24 24;" xml:space="preserve">
<style type="text/css">
	.st0{fill:#007931;}
</style>
<circle class="st0" cx="11" cy="10" r="1"/>
<circle class="st0" cx="8" cy="12.5" r="1.5"/>
<path class="st0" d="M12.1,19.6c-2,0-3.8-0.9-4.9-2.5c-0.5,0.2-1,0.4-1.6,0.4c-1.9,0-3.5-1.6-3.5-3.5c0-1.2,0.6-2.3,1.6-3
	c-0.1-0.3-0.1-0.6-0.1-0.9c0-2.1,1.8-3.7,3.9-3.5c1.2-2,3.3-3.2,5.6-3.2v1c-2.1,0-4,1.2-4.9,3L8,7.6L7.6,7.6c-0.2,0-0.4-0.1-0.6-0.1
	c-1.4,0-2.5,1.1-2.5,2.5c0,0.3,0.1,0.7,0.2,1l0.2,0.4l-0.4,0.2c-0.9,0.4-1.5,1.3-1.5,2.3c0,1.4,1.1,2.5,2.5,2.5c0.5,0,1-0.2,1.4-0.4
	l0.4-0.3l0.3,0.5c0.9,1.5,2.6,2.5,4.4,2.5c0.6,0,1.1-0.1,1.6-0.3l0.3,1C13.4,19.5,12.8,19.6,12.1,19.6L12.1,19.6z"/>
<path class="st0" d="M4,3c0.6,0,1,0.5,1,1S4.5,5,4,5S3,4.5,3,4S3.4,3,4,3 M4,2C2.9,2,2,2.9,2,4s0.9,2,2,2s2-0.9,2-2S5.1,2,4,2L4,2z"
	/>
<polygon class="st0" points="16.7,16 13.8,13.1 14.5,12.4 16.7,14.6 18.8,12.4 19.5,13.1 "/>
<polygon class="st0" points="16.7,11.7 13.8,8.8 14.5,8.1 16.7,10.2 18.8,8.1 19.5,8.8 "/>
<g>
	<g>
		<path class="st0" d="M16.7,19.8l-0.3-0.2c-0.1,0-1.7-1.3-3.1-3.3l0.8-0.6c1,1.4,2.1,2.4,2.6,2.9c1-0.9,4.4-4,4.4-7.6
			s-3.3-6.8-4.4-7.6c-0.6,0.5-2,1.8-3.1,3.5l-0.9-0.5c1.5-2.4,3.5-4,3.6-4L16.7,2L17,2.2c0.2,0.2,5.1,3.9,5.1,8.7s-4.9,8.5-5.1,8.7
			L16.7,19.8L16.7,19.8z"/>
		<rect x="16.2" y="6.3" class="st0" width="1" height="9"/>
	</g>
	<rect x="16.2" y="19.1" class="st0" width="1" height="2.9"/>
</g>
</svg>
