<?xml version="1.0" encoding="utf-8"?>
<!-- Generator: Adobe Illustrator 27.5.0, SVG Export Plug-In . SVG Version: 6.00 Build 0)  -->
<svg version="1.1" id="Artwork" xmlns="http://www.w3.org/2000/svg" xmlns:xlink="http://www.w3.org/1999/xlink" x="0px" y="0px"
	 viewBox="0 0 24 24" style="enable-background:new 0 0 24 24;" xml:space="preserve">
<style type="text/css">
	.st0{fill:#007931;}
</style>
<g>
	<path class="st0" d="M8.8,22c-0.6,0-1.3-0.1-1.9-0.3c-3.3-1.2-4.7-5.4-4.7-5.6L2,15.7l0.3-0.2c0.2-0.1,3.9-2.5,7.2-1.3
		c3.3,1.2,4.7,5.4,4.7,5.6l0.1,0.4L14,20.3C13.9,20.4,11.4,22,8.8,22L8.8,22z M3.2,16.2c0.4,1,1.7,3.8,4,4.6c2.3,0.8,5-0.5,6-1
		c-0.4-1-1.7-3.8-4-4.6C6.9,14.3,4.1,15.6,3.2,16.2z"/>
	<path class="st0" d="M15.2,20.6c-0.6,0-1.2-0.1-1.8-0.3l-6.9-2.5l0.3-0.9l6.9,2.4c1,0.3,2.1,0.3,3.2,0l0.3,1
		C16.5,20.5,15.8,20.6,15.2,20.6L15.2,20.6z"/>
</g>
<g>
	<path class="st0" d="M11.2,12.1h-1v-0.6c0-1.6-1.3-2.8-2.8-2.8H6.4c-1.6,0-2.8,1.3-2.8,2.8v0.6h-1v-0.6c0-2.1,1.7-3.8,3.8-3.8h0.9
		c2.1,0,3.8,1.7,3.8,3.8V12.1z"/>
	<path class="st0" d="M6.9,6.6c-1.3,0-2.3-1-2.3-2.3S5.6,2,6.9,2s2.3,1,2.3,2.3S8.2,6.6,6.9,6.6z M6.9,3C6.2,3,5.6,3.6,5.6,4.3
		s0.6,1.3,1.3,1.3s1.3-0.6,1.3-1.3S7.6,3,6.9,3z"/>
	<path class="st0" d="M16,13.3h-1v-0.6c0-1.5-1.3-2.8-2.9-2.8v-1c2.1,0,3.9,1.8,3.9,3.8V13.3z"/>
	<path class="st0" d="M12.7,7.9c-1.3,0-2.3-1-2.3-2.3s1-2.3,2.3-2.3s2.3,1,2.3,2.3S14,7.9,12.7,7.9z M12.7,4.2
		c-0.7,0-1.3,0.6-1.3,1.3s0.6,1.3,1.3,1.3S14,6.3,14,5.5S13.4,4.2,12.7,4.2z"/>
</g>
<g>
	<path class="st0" d="M19,19c-1.6,0-3-1.3-3-3c0-0.9,0.4-1.6,1-2.2V4.5c0-1.1,0.9-2,2-2s2,0.9,2,2h-1c0-0.5-0.4-1-1-1s-1,0.4-1,1
		v9.7l-0.2,0.1c-0.5,0.4-0.8,1-0.8,1.6c0,1.1,0.9,2,2,2s2-0.9,2-2c0-0.6-0.3-1.2-0.8-1.6L20,14.3v-1.4h1v0.9c0.6,0.6,1,1.4,1,2.2
		C22,17.6,20.7,19,19,19z"/>
	<rect x="19.5" y="6.3" class="st0" width="2" height="1"/>
	<rect x="19.5" y="8.3" class="st0" width="2" height="1"/>
	<rect x="19.5" y="10.3" class="st0" width="2" height="1"/>
	<circle class="st0" cx="19" cy="16" r="1"/>
</g>
</svg>
