<?xml version="1.0" encoding="utf-8"?>
<!-- Generator: Adobe Illustrator 27.5.0, SVG Export Plug-In . SVG Version: 6.00 Build 0)  -->
<svg version="1.1" id="Artwork" xmlns="http://www.w3.org/2000/svg" xmlns:xlink="http://www.w3.org/1999/xlink" x="0px" y="0px"
	 viewBox="0 0 24 24" style="enable-background:new 0 0 24 24;" xml:space="preserve">
<style type="text/css">
	.st0{fill:#007931;}
</style>
<g>
	<path class="st0" d="M12,21.5l-0.3-0.2c-0.2-0.1-3.8-3-3.8-6.6s3.7-6.4,3.8-6.6L12,7.9l0.3,0.2c0.2,0.1,3.8,2.9,3.8,6.6
		s-3.7,6.4-3.8,6.6C12.3,21.3,12,21.5,12,21.5z M12,9.2c-0.8,0.7-3.1,3-3.1,5.5s2.3,4.8,3.1,5.5c0.8-0.7,3.1-3,3.1-5.5
		S12.8,9.9,12,9.2z"/>
	<rect x="11.5" y="11" class="st0" width="1" height="11"/>
</g>
<path class="st0" d="M6,4.9c0.7,0,1.3,0.6,1.3,1.3S6.7,7.5,6,7.5S4.7,6.9,4.7,6.2S5.3,4.9,6,4.9 M6,3.9c-1.2,0-2.3,1-2.3,2.3
	s1,2.3,2.3,2.3s2.3-1,2.3-2.3S7.2,4,6,3.9C6,4,6,4,6,3.9z"/>
<path class="st0" d="M18,4.9c0.7,0,1.3,0.6,1.3,1.3S18.7,7.5,18,7.5s-1.3-0.6-1.3-1.3S17.3,4.9,18,4.9 M18,3.9c-1.2,0-2.3,1-2.3,2.3
	s1,2.3,2.3,2.3s2.3-1,2.3-2.3S19.2,4,18,3.9C18,4,18,4,18,3.9z"/>
<polygon class="st0" points="20.5,22 15.5,22 15.5,19.5 16.5,19.5 16.5,21 19.5,21 19.5,14.9 20.5,14.9 "/>
<path class="st0" d="M22,16h-1v-2.8c0-1.6-1.3-2.8-2.8-2.8h-0.3c-0.5,0-1,0.1-1.5,0.4l-0.5-0.9c0.6-0.4,1.3-0.6,2-0.6h0.3
	c2.1,0,3.8,1.7,3.8,3.8L22,16L22,16z"/>
<polygon class="st0" points="8.5,22 3.5,22 3.5,14.9 4.5,14.9 4.5,21 7.5,21 7.5,19.5 8.5,19.5 "/>
<path class="st0" d="M3,16H2v-2.8c0-2.1,1.7-3.8,3.8-3.8h0.3c0.7,0,1.4,0.2,2,0.6l-0.5,0.9c-0.4-0.3-1-0.4-1.5-0.4H5.8
	c-1.6,0-2.8,1.3-2.8,2.8L3,16L3,16z"/>
<rect x="11.6" y="16.6" transform="matrix(0.7071 -0.7071 0.7071 0.7071 -8.301 14.0745)" class="st0" width="2.5" height="1"/>
<rect x="11.6" y="13.5" transform="matrix(0.7071 -0.7071 0.7071 0.7071 -6.1082 13.1645)" class="st0" width="2.5" height="1"/>
<rect x="10.8" y="15.8" transform="matrix(0.7071 -0.7071 0.7071 0.7071 -8.766 12.9523)" class="st0" width="1" height="2.5"/>
<rect x="10.7" y="12.7" transform="matrix(0.7071 -0.7071 0.7071 0.7071 -6.5732 12.0423)" class="st0" width="1" height="2.5"/>
<path class="st0" d="M12,3c0.8,0,1.5,0.7,1.5,1.5S12.8,5.9,12,5.9s-1.5-0.7-1.5-1.5S11.2,3,12,3 M12,2c-1.4,0-2.5,1.1-2.5,2.5
	s1.1,2.5,2.5,2.5s2.5-1.1,2.5-2.5S13.4,2,12,2L12,2z"/>
</svg>
