<?xml version="1.0" encoding="utf-8"?>
<!-- Generator: Adobe Illustrator 27.5.0, SVG Export Plug-In . SVG Version: 6.00 Build 0)  -->
<svg version="1.1" id="Artwork" xmlns="http://www.w3.org/2000/svg" xmlns:xlink="http://www.w3.org/1999/xlink" x="0px" y="0px"
	 viewBox="0 0 24 24" style="enable-background:new 0 0 24 24;" xml:space="preserve">
<style type="text/css">
	.st0{fill:#007931;}
</style>
<path class="st0" d="M14.3,14h-1V9.8l0.4-0.1c2.8-0.7,5.8-3.4,6.2-6.3c-0.7,0.1-1.8,0.3-3,0.3c-1.1,0-4.3,0.4-4.3,2.1h-1
	c0-1.7-3.2-2.1-4.3-2.1c-1.2,0-2.3-0.2-3-0.3c0.4,3,3.4,5.6,6.2,6.3l0.4,0.1V14h-1v-3.5c-3.2-1-6.6-4.2-6.6-7.8V2l0.6,0.2
	c0,0,1.7,0.4,3.4,0.4C8.6,2.6,11,3,12,4.3c1-1.3,3.4-1.7,4.8-1.7c1.7,0,3.4-0.4,3.4-0.4L20.8,2v0.6c0,3.7-3.4,6.8-6.6,7.8L14.3,14
	L14.3,14z"/>
<g>
	<path class="st0" d="M18.4,17.8c-1.2,0-2.3-0.4-3.2-1.2c-1.8,1.5-4.6,1.5-6.4,0c-0.9,0.8-2,1.2-3.2,1.2c-1.3,0-2.6-0.5-3.6-1.5
		l0.7-0.7c0.8,0.8,1.8,1.2,2.9,1.2s2.1-0.4,2.9-1.2l0.4-0.4l0.4,0.4c0.8,0.8,1.8,1.2,2.9,1.2s2.1-0.4,2.9-1.2l0.4-0.4l0.4,0.4
		c0.8,0.8,1.8,1.2,2.9,1.2s2.1-0.4,2.9-1.2l0.7,0.7C21,17.3,19.8,17.8,18.4,17.8L18.4,17.8z"/>
	<path class="st0" d="M5.6,13.6c-1.3,0-2.6-0.5-3.6-1.5l0.7-0.7c1.4,1.4,3.7,1.6,5.2,0.4l0.6,0.8C7.6,13.3,6.6,13.6,5.6,13.6z"/>
	<path class="st0" d="M18.4,13.6c-1.1,0-2.1-0.3-3-1l0.6-0.8c1.6,1.1,3.9,1,5.3-0.4l0.7,0.7C21,13.1,19.8,13.7,18.4,13.6L18.4,13.6z
		"/>
	<path class="st0" d="M18.4,22c-1.2,0-2.3-0.4-3.2-1.2c-1.8,1.5-4.6,1.5-6.4,0c-0.9,0.8-2,1.2-3.2,1.2C4.2,22,3,21.5,2,20.5l0.7-0.7
		C3.5,20.6,4.5,21,5.6,21s2.1-0.4,2.9-1.2l0.4-0.4l0.4,0.4C9.9,20.6,10.9,21,12,21s2.1-0.4,2.9-1.2l0.4-0.4l0.4,0.4
		c0.8,0.8,1.8,1.2,2.9,1.2s2.1-0.4,2.9-1.2l0.7,0.7C21,21.5,19.8,22,18.4,22L18.4,22z"/>
</g>
</svg>
